# This file uses centimeters as units for non-parametric coordinates.

g default
v -0.151662 0.441349 -0.258583
v -0.131344 0.424886 -0.258583
v -0.075831 0.412834 -0.258583
v 0.000000 0.408423 -0.258583
v 0.075831 0.412834 -0.258583
v 0.131344 0.424886 -0.258583
v 0.151662 0.441349 -0.258583
v -0.151662 0.441349 0.258583
v -0.131344 0.424886 0.258583
v -0.075831 0.412834 0.258583
v 0.000000 0.408423 0.258583
v 0.075831 0.412834 0.258583
v 0.131344 0.424886 0.258583
v 0.151662 0.441349 0.258583
v 0.000000 0.441349 -0.258583
v 0.000000 0.441349 0.258583
v 0.053267 0.792970 -0.053267
v 0.000000 0.792970 -0.075331
v -0.053267 0.792970 -0.053267
v -0.075331 0.792970 0.000000
v -0.053267 0.792970 0.053267
v 0.000000 0.792970 0.075331
v 0.053267 0.792970 0.053267
v 0.075331 0.792970 0.000000
v 0.053267 0.880555 -0.053267
v 0.000000 0.880555 -0.075331
v -0.053267 0.880555 -0.053267
v -0.075331 0.880555 0.000000
v -0.053267 0.880555 0.053267
v 0.000000 0.880555 0.075331
v 0.053267 0.880555 0.053267
v 0.075331 0.880555 0.000000
v 0.000000 0.880555 -0.000000
v 0.032406 0.765213 -0.032406
v 0.000000 0.765213 -0.045829
v -0.032406 0.765213 -0.032406
v -0.045829 0.765213 0.000000
v -0.032406 0.765213 0.032406
v 0.000000 0.765213 0.045829
v 0.032406 0.765213 0.032406
v 0.045829 0.765213 0.000000
v 0.022592 0.535694 -0.022592
v 0.000000 0.535694 -0.031950
v -0.022592 0.535694 -0.022592
v -0.031950 0.535694 0.000000
v -0.022592 0.535694 0.022592
v 0.000000 0.535694 0.031950
v 0.022592 0.535694 0.022592
v 0.031950 0.535694 0.000000
v -0.000000 0.441349 0.000000
v 0.027499 0.552395 -0.027499
v 0.038890 0.552395 0.000000
v 0.027499 0.552395 0.027499
v 0.000000 0.552395 0.038890
v -0.027499 0.552395 0.027499
v -0.038890 0.552395 0.000000
v -0.027499 0.552395 -0.027499
v 0.000000 0.552395 -0.038890
v 0.175792 0.535694 -0.278007
v 0.185226 0.526260 -0.287440
v -0.000000 0.535694 -0.278007
v -0.000000 0.526260 -0.287440
v -0.175792 0.535694 -0.278007
v -0.185226 0.526260 -0.287440
v -0.175792 0.535694 0.000000
v -0.185226 0.526260 0.000000
v -0.175792 0.535694 0.278007
v -0.185226 0.526260 0.287440
v -0.000000 0.535694 0.278006
v -0.000000 0.526260 0.287440
v 0.175792 0.535694 0.278007
v 0.185226 0.526260 0.287440
v 0.175792 0.535694 0.000000
v 0.185226 0.526260 0.000000
v 0.175792 0.441349 -0.278007
v 0.185226 0.450782 -0.287440
v -0.000000 0.450782 -0.287440
v -0.000000 0.441349 -0.278007
v -0.185226 0.450782 -0.287440
v -0.175792 0.441349 -0.278007
v -0.185226 0.450782 0.000000
v -0.175792 0.441349 0.000000
v -0.185226 0.450782 0.287440
v -0.175792 0.441349 0.278007
v -0.000000 0.450782 0.287440
v -0.000000 0.441349 0.278006
v 0.185226 0.450782 0.287440
v 0.175792 0.441349 0.278007
v 0.185226 0.450782 0.000000
v 0.175792 0.441349 0.000000
vt 0.343750 0.156250
vt 0.364684 0.234375
vt 0.421875 0.291566
vt 0.500000 0.312500
vt 0.578125 0.291566
vt 0.635316 0.234375
vt 0.656250 0.156250
vt 0.479167 0.312500
vt 0.500000 0.312500
vt 0.520833 0.312500
vt 0.541667 0.312500
vt 0.562500 0.312500
vt 0.583333 0.312500
vt 0.604167 0.312500
vt 0.479167 0.688440
vt 0.500000 0.688440
vt 0.520833 0.688440
vt 0.541667 0.688440
vt 0.562500 0.688440
vt 0.583333 0.688440
vt 0.604167 0.688440
vt 0.635316 0.765625
vt 0.578125 0.708434
vt 0.500000 0.687500
vt 0.421875 0.708434
vt 0.364684 0.765625
vt 0.343750 0.843750
vt 0.656250 0.843750
vt 0.500000 0.150000
vt 0.500000 0.837500
vt 0.375000 0.312500
vt 0.406250 0.312500
vt 0.406250 0.688440
vt 0.375000 0.688440
vt 0.437500 0.312500
vt 0.437500 0.688440
vt 0.468750 0.312500
vt 0.468750 0.688440
vt 0.500000 0.312500
vt 0.500000 0.688440
vt 0.531250 0.312500
vt 0.531250 0.688440
vt 0.562500 0.312500
vt 0.562500 0.688440
vt 0.593750 0.312500
vt 0.593750 0.688440
vt 0.625000 0.312500
vt 0.625000 0.688440
vt 0.610485 0.954235
vt 0.500000 1.000000
vt 0.500000 0.837500
vt 0.389515 0.954235
vt 0.343750 0.843750
vt 0.389515 0.733265
vt 0.500000 0.687500
vt 0.610485 0.733265
vt 0.656250 0.843750
vt 0.500000 0.000000
vt 0.610485 0.045765
vt 0.610485 0.045765
vt 0.500000 0.000000
vt 0.389515 0.045765
vt 0.389515 0.045765
vt 0.343750 0.156250
vt 0.343750 0.156250
vt 0.389515 0.266735
vt 0.389515 0.266735
vt 0.500000 0.312500
vt 0.500000 0.312500
vt 0.610485 0.266735
vt 0.610485 0.266735
vt 0.656250 0.156250
vt 0.656250 0.156250
vt 0.500000 0.000000
vt 0.610485 0.045765
vt 0.389515 0.045765
vt 0.343750 0.156250
vt 0.389515 0.266735
vt 0.500000 0.312500
vt 0.610485 0.266735
vt 0.656250 0.156250
vt 0.604858 0.048357
vt 0.500000 0.004923
vt 0.395142 0.048357
vt 0.351708 0.155932
vt 0.395142 0.263733
vt 0.500000 0.307167
vt 0.604858 0.263733
vt 0.500000 0.150000
vt 0.648292 0.155932
vt 0.610485 0.045765
vt 0.500000 0.000000
vt 0.500000 0.000000
vt 0.395142 0.043434
vt 0.389515 0.045765
vt 0.343750 0.156250
vt 0.343750 0.156250
vt 0.395142 0.269066
vt 0.389515 0.266735
vt 0.500000 0.312500
vt 0.500000 0.312500
vt 0.604858 0.269066
vt 0.610485 0.266735
vt 0.656250 0.156250
vt 0.656250 0.156250
vt 0.604858 0.043434
vt 0.610485 0.045765
vt 0.500000 0.000000
vt 0.500000 0.000000
vt 0.389515 0.045765
vt 0.389515 0.045765
vt 0.343750 0.156250
vt 0.343750 0.156250
vt 0.389515 0.266735
vt 0.389515 0.266735
vt 0.500000 0.312500
vt 0.500000 0.312500
vt 0.610485 0.266735
vt 0.610485 0.266735
vt 0.656250 0.156250
vt 0.656250 0.156250
vt 0.610485 0.045765
vn -0.629525 -0.776980 0.000000
vn -0.351964 -0.936014 0.000000
vn -0.351964 -0.936014 0.000000
vn -0.629525 -0.776980 0.000000
vn -0.124368 -0.992236 0.000000
vn -0.124368 -0.992236 0.000000
vn 0.000000 -1.000000 0.000000
vn 0.000000 -1.000000 0.000000
vn 0.124368 -0.992236 0.000000
vn 0.124368 -0.992236 0.000000
vn 0.351964 -0.936014 0.000000
vn 0.351964 -0.936014 0.000000
vn 0.629525 -0.776980 0.000000
vn 0.629525 -0.776980 0.000000
vn 0.000000 0.000000 -1.000000
vn 0.000000 0.000000 -1.000000
vn 0.000000 0.000000 -1.000000
vn 0.000000 0.000000 -1.000000
vn 0.000000 0.000000 -1.000000
vn 0.000000 0.000000 -1.000000
vn 0.000000 0.000000 -1.000000
vn 0.000000 0.000000 -1.000000
vn 0.000000 0.000000 1.000000
vn 0.000000 0.000000 1.000000
vn -0.000000 0.000000 1.000000
vn -0.000000 0.000000 1.000000
vn -0.000000 0.000000 1.000000
vn -0.000000 0.000000 1.000000
vn -0.000000 0.000000 1.000000
vn 0.000000 0.000000 1.000000
vn 0.707107 0.000000 -0.707107
vn 0.000000 0.000000 -1.000000
vn 0.000000 0.000000 -1.000000
vn 0.707107 0.000000 -0.707107
vn -0.707107 0.000000 -0.707107
vn -0.707107 0.000000 -0.707107
vn -1.000000 0.000000 0.000000
vn -1.000000 0.000000 0.000000
vn -0.707107 0.000000 0.707107
vn -0.707107 0.000000 0.707107
vn 0.000000 0.000000 1.000000
vn 0.000000 0.000000 1.000000
vn 0.707107 0.000000 0.707107
vn 0.707107 0.000000 0.707107
vn 1.000000 0.000000 0.000000
vn 1.000000 0.000000 0.000000
vn 0.000000 1.000000 0.000000
vn 0.000000 1.000000 -0.000000
vn 0.000000 1.000000 0.000000
vn 0.000000 1.000000 0.000001
vn 0.000000 1.000000 0.000001
vn 0.000000 1.000000 0.000000
vn 0.000000 1.000000 -0.000000
vn 0.000000 1.000000 -0.000000
vn 0.000000 1.000000 0.000000
vn 0.000000 -0.728325 -0.685232
vn 0.484533 -0.728325 -0.484532
vn 0.484533 -0.728325 -0.484532
vn 0.000000 -0.728325 -0.685232
vn -0.484533 -0.728325 -0.484531
vn -0.484533 -0.728325 -0.484531
vn -0.685232 -0.728325 0.000000
vn -0.685232 -0.728325 0.000000
vn -0.484533 -0.728325 0.484531
vn -0.484533 -0.728325 0.484531
vn 0.000000 -0.728325 0.685231
vn 0.000000 -0.728325 0.685231
vn 0.484533 -0.728325 0.484532
vn 0.484533 -0.728325 0.484532
vn 0.685233 -0.728324 -0.000000
vn 0.685232 -0.728324 -0.000000
vn 0.000000 -0.383700 -0.923458
vn 0.652984 -0.383700 -0.652983
vn 0.652984 -0.383700 -0.652983
vn 0.000000 -0.383700 -0.923458
vn -0.652984 -0.383700 -0.652983
vn -0.652984 -0.383700 -0.652983
vn -0.923458 -0.383700 0.000000
vn -0.923458 -0.383700 0.000000
vn -0.652983 -0.383700 0.652984
vn -0.652983 -0.383700 0.652984
vn 0.000000 -0.383700 0.923458
vn 0.000000 -0.383700 0.923458
vn 0.652983 -0.383700 0.652983
vn 0.652983 -0.383700 0.652984
vn 0.923458 -0.383700 0.000000
vn 0.923458 -0.383700 0.000000
vn 0.706731 -0.032590 -0.706731
vn 0.999469 -0.032590 0.000000
vn 0.999469 -0.032590 0.000000
vn 0.706731 -0.032590 -0.706731
vn 0.706731 -0.032590 0.706731
vn 0.706731 -0.032590 0.706731
vn 0.000000 -0.032590 0.999469
vn 0.000000 -0.032590 0.999469
vn -0.706731 -0.032590 0.706731
vn -0.706731 -0.032590 0.706731
vn -0.999469 -0.032590 0.000000
vn -0.999469 -0.032590 0.000000
vn -0.706731 -0.032590 -0.706731
vn -0.706731 -0.032590 -0.706731
vn 0.000000 -0.032590 -0.999469
vn 0.000000 -0.032590 -0.999469
vn 0.000000 0.707106 -0.707107
vn 0.000000 0.707106 -0.707107
vn 0.000000 0.707106 -0.707107
vn 0.000000 0.707106 -0.707107
vn 0.707106 0.707107 -0.000000
vn 0.707106 0.707107 -0.000000
vn 0.707106 0.707108 -0.000000
vn 0.707106 0.707108 -0.000000
vn 0.000000 0.707107 -0.707107
vn 0.000000 0.707106 -0.707107
vn -0.707107 0.707107 0.000000
vn -0.707107 0.707107 0.000000
vn -0.707106 0.707107 0.000000
vn -0.707106 0.707107 0.000000
vn -0.707106 0.707107 0.000000
vn -0.707106 0.707107 0.000000
vn 0.000001 0.707107 0.707107
vn 0.000001 0.707107 0.707107
vn 0.000000 0.707107 0.707107
vn 0.000000 0.707107 0.707107
vn -0.000001 0.707107 0.707107
vn -0.000001 0.707107 0.707107
vn 0.707106 0.707108 0.000000
vn 0.707106 0.707108 0.000000
vn 0.707106 -0.707108 0.000000
vn 0.707106 -0.707108 0.000000
vn 0.707106 -0.707108 0.000000
vn 0.707106 -0.707108 0.000000
vn 0.000000 -0.707106 -0.707107
vn 0.000000 -0.707106 -0.707107
vn 0.000000 -0.707106 -0.707107
vn 0.000000 -0.707106 -0.707107
vn 0.000000 -0.707106 -0.707107
vn 0.000000 -0.707106 -0.707107
vn -0.707107 -0.707107 0.000000
vn -0.707107 -0.707107 0.000000
vn -0.707106 -0.707107 0.000000
vn -0.707106 -0.707107 0.000000
vn -0.707106 -0.707107 0.000000
vn -0.707106 -0.707107 0.000000
vn 0.000001 -0.707107 0.707107
vn 0.000001 -0.707107 0.707107
vn 0.000000 -0.707107 0.707107
vn 0.000000 -0.707107 0.707107
vn -0.000001 -0.707107 0.707107
vn -0.000001 -0.707107 0.707107
vn 0.707106 -0.707108 0.000000
vn 0.707106 -0.707108 0.000000
vn 0.000000 -1.000000 -0.000000
vn 0.000000 -1.000000 0.000000
vn 0.000000 -1.000000 -0.000000
vn 0.000000 -1.000000 -0.000000
vn 0.000000 -1.000000 0.000000
vn 0.000000 -1.000000 0.000000
vn 0.000000 -1.000000 -0.000000
vn 0.000000 -1.000000 -0.000000
vn 0.000000 -1.000000 0.000000
vn 0.000000 1.000000 0.000000
vn 0.000000 1.000000 0.000000
vn 0.000000 1.000000 0.000000
vn 0.000000 1.000000 0.000000
vn 0.000000 1.000000 0.000000
vn 0.000000 1.000000 0.000000
vn 0.000000 1.000000 0.000000
vn 0.000000 1.000000 0.000000
vn 0.000000 1.000000 -0.000000
vn 0.000000 1.000000 -0.000000
vn 0.000000 1.000000 -0.000000
vn 0.000000 1.000000 -0.000000
vn 0.000000 1.000000 0.000000
vn 0.000000 1.000000 0.000000
vn 0.000000 1.000000 0.000000
vn 0.000000 1.000000 0.000000
vn 0.000000 0.000000 -1.000000
vn 0.000000 0.000000 -1.000000
vn 0.000000 0.000000 -1.000000
vn 0.000000 0.000000 -1.000000
vn 0.000000 0.000000 -1.000000
vn 0.000000 0.000000 -1.000000
vn -1.000000 0.000000 0.000000
vn -1.000000 0.000000 0.000000
vn -1.000000 0.000000 0.000000
vn -1.000000 0.000000 0.000000
vn -1.000000 0.000000 0.000000
vn -1.000000 0.000000 0.000000
vn 0.000000 0.000000 1.000000
vn 0.000001 0.000000 1.000000
vn 0.000001 0.000000 1.000000
vn 0.000000 0.000000 1.000000
vn -0.000001 0.000000 1.000000
vn -0.000001 0.000000 1.000000
vn 1.000000 0.000000 0.000000
vn 1.000000 0.000000 0.000000
vn 1.000000 0.000000 0.000000
vn 1.000000 0.000000 0.000000
vn 1.000000 0.000000 -0.000000
vn 1.000000 0.000000 -0.000000
s 1
g pCylinder3
f 1/8/1 2/9/2 9/16/3 8/15/4
f 2/9/2 3/10/5 10/17/6 9/16/3
f 3/10/5 4/11/7 11/18/8 10/17/6
f 4/11/7 5/12/9 12/19/10 11/18/8
f 5/12/9 6/13/11 13/20/12 12/19/10
f 6/13/11 7/14/13 14/21/14 13/20/12
s 2
f 2/2/15 1/1/16 15/29/17
f 3/3/18 2/2/15 15/29/17
f 4/4/19 3/3/18 15/29/17
f 5/5/20 4/4/19 15/29/17
f 6/6/21 5/5/20 15/29/17
f 7/7/22 6/6/21 15/29/17
s 3
f 8/27/23 9/26/24 16/30/25
f 9/26/24 10/25/26 16/30/25
f 10/25/26 11/24/27 16/30/25
f 11/24/27 12/23/28 16/30/25
f 12/23/28 13/22/29 16/30/25
f 13/22/29 14/28/30 16/30/25
s 4
f 17/31/31 18/32/32 26/33/33 25/34/34
f 18/32/32 19/35/35 27/36/36 26/33/33
f 19/35/35 20/37/37 28/38/38 27/36/36
f 20/37/37 21/39/39 29/40/40 28/38/38
f 21/39/39 22/41/41 30/42/42 29/40/40
f 22/41/41 23/43/43 31/44/44 30/42/42
f 23/43/43 24/45/45 32/46/46 31/44/44
f 24/45/45 17/47/31 25/48/34 32/46/46
s 5
f 25/49/47 26/50/48 33/51/49
f 26/50/48 27/52/50 33/51/49
f 27/52/50 28/53/51 33/51/49
f 28/53/51 29/54/52 33/51/49
f 29/54/52 30/55/53 33/51/49
f 30/55/53 31/56/54 33/51/49
f 31/56/54 32/57/55 33/51/49
f 32/57/55 25/49/47 33/51/49
s 6
f 18/58/56 17/59/57 34/60/58 35/61/59
f 19/62/60 18/58/56 35/61/59 36/63/61
f 20/64/62 19/62/60 36/63/61 37/65/63
f 21/66/64 20/64/62 37/65/63 38/67/65
f 22/68/66 21/66/64 38/67/65 39/69/67
f 23/70/68 22/68/66 39/69/67 40/71/69
f 24/72/70 23/70/68 40/71/69 41/73/71
f 17/59/57 24/72/70 41/73/71 34/60/58
s 7
f 58/74/72 51/75/73 42/91/74 43/93/75
f 57/76/76 58/74/72 43/93/75 44/95/77
f 56/77/78 57/76/76 44/95/77 45/97/79
f 55/78/80 56/77/78 45/97/79 46/99/81
f 54/79/82 55/78/80 46/99/81 47/101/83
f 53/80/84 54/79/82 47/101/83 48/103/85
f 52/81/86 53/80/84 48/103/85 49/105/87
f 51/75/73 52/81/86 49/105/87 42/91/74
s 8
f 34/60/88 41/73/89 52/81/90 51/75/91
f 41/73/89 40/71/92 53/80/93 52/81/90
f 40/71/92 39/69/94 54/79/95 53/80/93
f 39/69/94 38/67/96 55/78/97 54/79/95
f 38/67/96 37/65/98 56/77/99 55/78/97
f 37/65/98 36/63/100 57/76/101 56/77/99
f 36/63/100 35/61/102 58/74/103 57/76/101
f 35/61/102 34/60/88 51/75/91 58/74/103
s 9
f 59/106/104 60/107/105 62/109/106 61/92/107
s 10
f 60/107/108 59/106/109 73/104/110 74/121/111
s 9
f 61/92/107 62/109/106 64/111/112 63/94/113
s 11
f 63/94/114 64/111/115 66/113/116 65/96/117
f 65/96/117 66/113/116 68/115/118 67/98/119
s 12
f 67/98/120 68/115/121 70/117/122 69/100/123
f 69/100/123 70/117/122 72/119/124 71/102/125
s 10
f 71/102/126 72/119/127 74/121/111 73/104/110
s 13
f 75/82/128 76/122/129 89/120/130 90/90/131
s 14
f 76/122/132 75/82/133 78/83/134 77/108/135
f 77/108/135 78/83/134 80/84/136 79/110/137
s 15
f 79/110/138 80/84/139 82/85/140 81/112/141
f 81/112/141 82/85/140 84/86/142 83/114/143
s 16
f 83/114/144 84/86/145 86/87/146 85/116/147
f 85/116/147 86/87/146 88/88/148 87/118/149
s 13
f 87/118/150 88/88/151 90/90/131 89/120/130
s 17
f 78/83/152 75/82/153 50/89/154
f 80/84/155 78/83/152 50/89/154
f 82/85/156 80/84/155 50/89/154
f 84/86/157 82/85/156 50/89/154
f 86/87/158 84/86/157 50/89/154
f 88/88/159 86/87/158 50/89/154
f 90/90/160 88/88/159 50/89/154
f 75/82/153 90/90/160 50/89/154
s 18
f 43/93/161 42/91/162 59/106/163 61/92/164
f 44/95/165 43/93/161 61/92/164 63/94/166
f 45/97/167 44/95/165 63/94/166 65/96/168
f 46/99/169 45/97/167 65/96/168 67/98/170
f 47/101/171 46/99/169 67/98/170 69/100/172
f 48/103/173 47/101/171 69/100/172 71/102/174
f 49/105/175 48/103/173 71/102/174 73/104/176
f 42/91/162 49/105/175 73/104/176 59/106/163
s 19
f 62/109/177 60/107/178 76/122/179 77/108/180
f 64/111/181 62/109/177 77/108/180 79/110/182
s 20
f 66/113/183 64/111/184 79/110/185 81/112/186
f 68/115/187 66/113/183 81/112/186 83/114/188
s 21
f 70/117/189 68/115/190 83/114/191 85/116/192
f 72/119/193 70/117/189 85/116/192 87/118/194
s 22
f 74/121/195 72/119/196 87/118/197 89/120/198
f 60/107/199 74/121/195 89/120/198 76/122/200
