# This file uses centimeters as units for non-parametric coordinates.

mtllib tablet.mtl
g default
v 0.363123 -0.025267 0.463691
v 0.352488 -0.025267 0.489365
v 0.326814 -0.025267 0.500000
v -0.363123 -0.025267 0.463691
v -0.326814 -0.025267 0.500000
v -0.352488 -0.025267 0.489365
v 0.352488 -0.025267 -0.489365
v 0.363123 -0.025267 -0.463691
v 0.326814 -0.025267 -0.500000
v -0.352488 -0.025267 -0.489365
v -0.326814 -0.025267 -0.500000
v -0.363123 -0.025267 -0.463691
v 0.325031 -0.025267 -0.463691
v -0.325031 -0.025267 -0.463691
v 0.325031 -0.025267 0.463691
v -0.325031 -0.025267 0.463691
v 0.325031 -0.012984 -0.463691
v -0.325031 -0.012984 -0.463691
v 0.325031 -0.012984 0.463691
v -0.325031 -0.012984 0.463691
v 0.316433 0.016200 0.448962
v 0.316433 0.016200 -0.448962
v -0.316433 0.016200 -0.448962
v -0.316433 0.016200 0.448962
v 0.319472 0.004059 0.488768
v 0.313744 0.016200 0.470601
v -0.319472 0.004059 0.488768
v -0.313825 0.016200 0.471009
v 0.355132 0.003458 0.453488
v 0.338268 0.016200 0.446313
v 0.355132 0.003458 -0.453488
v 0.337527 0.016200 -0.446165
v 0.319472 0.004059 -0.488768
v 0.313825 0.016200 -0.471009
v -0.319472 0.004059 -0.488768
v -0.313744 0.016200 -0.470601
v -0.355132 0.003458 0.453488
v -0.337527 0.016200 0.446165
v -0.355132 0.003458 -0.453488
v -0.338268 0.016200 -0.446313
v 0.344562 0.004087 0.478362
v 0.331259 0.016200 0.463788
v -0.344562 0.004087 0.478362
v -0.330994 0.016200 0.463523
v 0.331259 0.016200 -0.463788
v 0.344562 0.004087 -0.478362
v -0.330994 0.016200 -0.463523
v -0.344562 0.004087 -0.478362
vt 0.375000 0.490923
vt 0.375000 0.259077
vt 0.625000 0.259077
vt 0.625000 0.490923
vt 0.375000 0.500000
vt 0.625000 0.490923
vt 0.375000 0.490923
vt 0.375000 0.259077
vt 0.625000 0.259077
vt 0.625000 0.490923
vt 0.375000 0.490923
vt 0.375000 0.259077
vt 0.625000 0.259077
vt 0.388527 0.000000
vt 0.611576 0.000000
vt 0.387376 0.000000
vt 0.378617 0.000000
vt 0.612621 -0.000000
vt 0.621288 0.000000
vt 0.368074 -0.000000
vt 0.374402 -0.000000
vt 0.365241 0.000000
vt 0.134906 0.000000
vt 0.131800 0.000000
vt 0.125000 0.073028
vt 0.125592 0.000000
vt 0.625000 0.676972
vt 0.634907 0.000000
vt 0.865241 0.000000
vt 0.631800 -0.000000
vt 0.625608 0.000000
vt 0.868075 0.000000
vt 0.874387 0.000000
vt 0.387499 0.250000
vt 0.612501 0.073198
vt 0.387499 0.676802
vt 0.612501 0.500000
vt 0.634077 0.250000
vt 0.865923 0.076819
vt 0.134077 0.250000
vt 0.365923 0.076819
vt 0.375000 0.073028
vt 0.365923 0.250000
vt 0.387499 0.073198
vt 0.375000 0.250000
vt 0.625000 0.073031
vt 0.612501 0.250000
vt 0.634077 0.076819
vt 0.625000 0.250000
vt 0.125000 0.250000
vt 0.134077 0.076819
vt 0.387499 0.500000
vt 0.375000 0.676972
vt 0.625000 0.500000
vt 0.612501 0.676802
vt 0.875000 0.250000
vt 0.865923 0.250000
vt 0.875000 0.073030
vt 0.399998 0.759799
vt 0.406658 0.753385
vt 0.400224 0.753663
vt 0.600002 0.990201
vt 0.407254 0.996510
vt 0.562500 0.990923
vt 0.437500 0.990923
vt 0.400224 0.996337
vt 0.398680 0.990239
vt 0.599109 0.996240
vt 0.592930 0.996615
vt 0.592319 0.753490
vt 0.437500 0.759077
vt 0.599110 0.753760
vt 0.601320 0.759761
vt 0.562500 0.759077
vn -0.000000 -1.000000 0.000000
vn -0.000000 -1.000000 0.000000
vn -0.000000 -1.000000 0.000000
vn -0.000000 -1.000000 0.000000
vn 0.000000 1.000000 0.000000
vn 0.000000 1.000000 -0.000000
vn 0.000000 1.000000 -0.000000
vn 0.000000 1.000000 0.000000
vn -0.000000 -1.000000 0.000000
vn -0.000000 -1.000000 0.000000
vn -0.000000 -1.000000 0.000000
vn -0.000000 -1.000000 0.000000
vn -0.000000 -1.000000 0.000000
vn -0.000000 -1.000000 0.000000
vn -0.000000 -1.000000 0.000000
vn -0.000000 -1.000000 0.000000
vn -0.000000 -1.000000 0.000000
vn -0.000000 -1.000000 0.000000
vn -0.000000 -1.000000 0.000000
vn -0.000000 -1.000000 0.000000
vn -0.000000 -1.000000 0.000000
vn -0.000000 -1.000000 0.000000
vn -0.000000 -1.000000 0.000000
vn -0.000000 -1.000000 0.000000
vn 0.000000 0.000000 1.000000
vn 0.000000 0.000000 1.000000
vn 0.000000 0.000000 1.000000
vn 0.000000 0.000000 1.000000
vn -1.000000 0.000000 0.000000
vn -1.000000 0.000000 0.000000
vn -1.000000 0.000000 0.000000
vn -1.000000 0.000000 0.000000
vn -0.000000 0.000000 -1.000000
vn -0.000000 0.000000 -1.000000
vn -0.000000 0.000000 -1.000000
vn -0.000000 0.000000 -1.000000
vn 1.000000 -0.000000 0.000000
vn 1.000000 -0.000000 0.000000
vn 1.000000 -0.000000 0.000000
vn 1.000000 -0.000000 0.000000
vn -0.000000 -1.000000 0.000000
vn -0.000000 -1.000000 0.000000
vn -0.000000 -1.000000 0.000000
vn -0.000000 -1.000000 0.000000
vn -0.000000 -1.000000 0.000000
vn -0.000000 -1.000000 0.000000
vn -0.000000 -1.000000 0.000000
vn -0.000000 -1.000000 0.000000
vn -0.000000 -1.000000 0.000000
vn -0.000000 -1.000000 0.000000
vn -0.000000 -1.000000 0.000000
vn -0.000000 -1.000000 0.000000
vn -0.000000 -1.000000 0.000000
vn -0.000000 -1.000000 0.000000
vn -0.000000 -1.000000 0.000000
vn -0.000000 -1.000000 0.000000
vn 0.007618 0.829551 0.558379
vn 0.007302 0.829507 0.558448
vn -0.007247 0.829569 0.558357
vn -0.007560 0.829613 0.558287
vn 0.394212 0.851022 0.346926
vn 0.371584 0.852450 0.367769
vn -0.372806 0.855264 0.359917
vn -0.394101 0.854301 0.338901
vn 0.593505 0.804822 0.003701
vn 0.593174 0.805059 0.005016
vn 0.593427 0.804878 -0.004000
vn 0.593073 0.805131 -0.005244
vn 0.396632 0.852523 -0.340422
vn 0.374924 0.853519 -0.361853
vn 0.007446 0.829492 -0.558469
vn 0.007132 0.829452 -0.558532
vn -0.007731 0.829672 -0.558198
vn -0.007416 0.829623 -0.558274
vn -0.391676 0.852831 -0.345355
vn -0.369470 0.854220 -0.365787
vn -0.593328 0.804951 0.004060
vn -0.592939 0.805230 0.005331
vn -0.593037 0.805159 -0.005103
vn -0.593404 0.804896 -0.003762
vn 0.014863 0.360882 0.932493
vn 0.014490 0.360802 0.932530
vn -0.014490 0.360802 0.932530
vn -0.014863 0.360882 0.932493
vn 0.014490 0.360802 -0.932530
vn 0.014863 0.360882 -0.932493
vn -0.014863 0.360882 -0.932493
vn -0.014490 0.360802 -0.932530
vn -0.962346 0.271603 0.011014
vn -0.962098 0.272375 0.013381
vn -0.962098 0.272375 -0.013381
vn -0.962346 0.271603 -0.011014
vn 0.962346 0.271603 -0.011014
vn 0.962098 0.272375 -0.013381
vn 0.962098 0.272375 0.013381
vn 0.962346 0.271603 0.011014
vn 0.859883 0.365705 0.356175
vn 0.859883 0.365704 0.356175
vn 0.349021 0.410112 0.842611
vn 0.349021 0.410112 0.842611
vn -0.349021 0.410112 0.842611
vn -0.349021 0.410112 0.842611
vn -0.859883 0.365704 0.356175
vn -0.859883 0.365704 0.356176
vn 0.859883 0.365704 -0.356175
vn 0.859883 0.365704 -0.356175
vn 0.349021 0.410112 -0.842611
vn 0.349021 0.410112 -0.842611
vn -0.349021 0.410112 -0.842611
vn -0.349021 0.410112 -0.842611
vn -0.859884 0.365704 -0.356176
vn -0.859884 0.365704 -0.356176
vn 0.000000 1.000000 0.000000
vn 0.000000 1.000000 0.000000
vn 0.000000 1.000000 0.000000
vn 0.000000 1.000000 -0.000000
vn 0.000000 1.000000 -0.000000
vn 0.000000 1.000000 -0.000000
vn 0.000000 1.000000 -0.000000
vn 0.000000 1.000000 -0.000000
vn 0.000000 1.000000 -0.000000
vn 0.000000 1.000000 0.000000
vn 0.000000 1.000000 0.000000
vn 0.000000 1.000000 0.000000
s off
g pCube3
usemtl initialShadingGroup
f 11/37/1 9/52/2 13/7/3 14/6/4
s 1
f 23/74/5 24/64/6 21/65/7 22/71/8
s off
f 18/10/9 17/11/10 19/12/11 20/13/12
f 8/1/13 1/2/14 15/8/15 13/7/16
f 3/34/17 15/8/18 1/2/19 2/45/20
f 4/3/21 12/4/22 14/6/23 16/9/24
f 14/6/25 13/7/26 17/11/27 18/10/28
f 13/7/29 15/8/30 19/12/31 17/11/32
f 15/8/33 16/9/34 20/13/35 19/12/36
f 16/9/37 14/6/38 18/10/39 20/13/40
f 13/7/41 9/52/42 7/5/43 8/1/44
f 10/54/45 11/37/46 14/6/47 12/4/48
f 5/47/49 16/9/50 15/8/51 3/34/52
f 6/49/53 4/3/54 16/9/55 5/47/56
s 2
f 25/44/57 26/14/58 28/15/59 27/35/60
f 26/16/58 25/44/57 41/42/61 42/17/62
f 27/35/60 28/18/59 44/19/63 43/46/64
f 29/41/65 30/20/66 42/21/62 41/42/61
f 30/22/66 29/41/65 31/51/67 32/23/68
f 32/24/68 31/51/67 46/25/69 45/26/70
f 33/36/71 34/60/72 45/61/70 46/53/69
f 34/60/72 33/36/71 35/55/73 36/70/74
f 36/70/74 35/55/73 48/27/75 47/72/76
f 37/48/77 38/28/78 40/29/79 39/39/80
f 38/30/78 37/48/77 43/46/64 44/31/63
f 39/39/80 40/32/79 47/33/76 48/58/75
s 3
f 3/34/81 25/44/82 27/35/83 5/47/84
s 4
f 33/36/85 9/52/86 11/37/87 35/55/88
s 5
f 4/38/89 37/48/90 39/39/91 12/57/92
s 6
f 8/40/93 31/51/94 29/41/95 1/43/96
f 29/41/95 41/42/97 2/45/98 1/43/96
s 3
f 41/42/99 25/44/82 3/34/81 2/45/100
f 27/35/83 43/46/101 6/49/102 5/47/84
s 5
f 43/46/103 37/48/90 4/38/89 6/49/104
s 6
f 8/40/93 7/50/105 46/25/106 31/51/94
s 4
f 7/5/107 9/52/86 33/36/85 46/53/108
f 11/37/87 10/54/109 48/27/110 35/55/88
s 5
f 10/56/111 12/57/92 39/39/91 48/58/112
s 1
f 22/71/8 21/65/7 30/67/113 32/59/114
f 34/60/115 22/71/8 32/59/114 45/61/116
f 40/73/117 38/62/118 24/64/6 23/74/5
f 28/69/119 26/63/120 21/65/7 24/64/6
f 21/65/7 26/63/120 42/66/121 30/67/113
f 44/68/122 28/69/119 24/64/6 38/62/118
f 36/70/123 23/74/5 22/71/8 34/60/115
f 47/72/124 40/73/117 23/74/5 36/70/123
